<svg width="124" height="124" viewBox="0 0 124 124" fill="none" xmlns="http://www.w3.org/2000/svg">
<g filter="url(#filter0_d)">
<rect x="4" width="116" height="116" rx="58" fill="#EDEEF0"/>
</g>
<path d="M74 34L65.2009 41.3326C63.3467 42.8778 60.6533 42.8778 58.7991 41.3326L50 34" stroke="#153049" stroke-width="3"/>
<path d="M74 44L65.674 53.0198C63.6942 55.1646 60.3058 55.1646 58.326 53.0198L50 44" stroke="#153049" stroke-width="3"/>
<path d="M74 57L65.5355 65.4645C63.5829 67.4171 60.4171 67.4171 58.4645 65.4645L50 57" stroke="#153049" stroke-width="3"/>
<path d="M74 69L65.674 78.0198C63.6942 80.1646 60.3058 80.1646 58.326 78.0198L50 69" stroke="#153049" stroke-width="3"/>
<rect x="44.5" y="21.5" width="36" height="71" rx="8.5" stroke="#153049" stroke-width="3"/>
<path d="M44 79H41C29.9543 79 21 70.0457 21 59V57" stroke="#153049" stroke-width="3"/>
<rect x="13.5" y="42.5" width="14" height="14" rx="7" stroke="#153049" stroke-width="3"/>
<line x1="20.5" y1="43" x2="20.5" y2="55" stroke="#153049" stroke-width="3"/>
<defs>
<filter id="filter0_d" x="0" y="0" width="124" height="124" filterUnits="userSpaceOnUse" color-interpolation-filters="sRGB">
<feFlood flood-opacity="0" result="BackgroundImageFix"/>
<feColorMatrix in="SourceAlpha" type="matrix" values="0 0 0 0 0 0 0 0 0 0 0 0 0 0 0 0 0 0 127 0"/>
<feOffset dy="4"/>
<feGaussianBlur stdDeviation="2"/>
<feColorMatrix type="matrix" values="0 0 0 0 0 0 0 0 0 0 0 0 0 0 0 0 0 0 0.25 0"/>
<feBlend mode="normal" in2="BackgroundImageFix" result="effect1_dropShadow"/>
<feBlend mode="normal" in="SourceGraphic" in2="effect1_dropShadow" result="shape"/>
</filter>
</defs>
</svg>
